<svg xmlns="http://www.w3.org/2000/svg" width="267" height="178" viewBox="0 0 267 178">

        <svg class="shape-component" xmlns="http://www.w3.org/2000/svg" version="1.1" width="180" height="180" viewBox="0 0 180 185">
          <g fill="#333333"><path d="M0 0 h 180 v 8 h -180 Z M0 0 h 8 v 180 h -8 Z M180 185 h -180 v -8 h 180 Z M180 185 h -8 v -35.99999999999999 h 8 ZM180 26 h -8 v -26 h 8 Z" fill-rule="nonzero"></path>
          </g>
        </svg>

       <svg xmlns="http://www.w3.org/2000/svg" version="1.1" x="15" y="10" width="227" height="100%" viewBox="0 0 227 28">
            <g fill="#3b3b3b"><path d="M8.18 -1.2C10.19 0.01 12.46 0.62 15 0.62C16.95 0.62 18.89 0.2 20.83 -0.64C22.78 -1.48 24.5 -2.95 26 -5.05L24.99 -5.87C23.96 -4.44 22.63 -3.34 21.03 -2.57C19.42 -1.79 17.75 -1.4 16.01 -1.4C14.1 -1.4 12.35 -1.92 10.77 -2.97C9.19 -4.02 7.93 -5.49 7 -7.37C6.06 -9.24 5.6 -11.38 5.6 -13.76C5.6 -16.25 6.04 -18.44 6.92 -20.33C7.8 -22.22 9 -23.68 10.51 -24.7C12.03 -25.72 13.71 -26.24 15.55 -26.24C17.8 -26.24 19.65 -25.56 21.09 -24.2C22.52 -22.84 23.37 -20.95 23.63 -18.54L25.03 -18.54L25.03 -27.56L22.93 -27.56L23.13 -25.46C20.74 -27.04 18.13 -27.83 15.28 -27.83C12.4 -27.83 9.94 -27.14 7.91 -25.75C5.88 -24.36 4.35 -22.56 3.32 -20.33C2.3 -18.1 1.79 -15.72 1.79 -13.18C1.79 -10.61 2.35 -8.28 3.48 -6.18C4.61 -4.08 6.17 -2.42 8.18 -1.2Z M33.19 -1.28L33.19 0L53.25 0L53.48 -7.58L52.16 -7.58C52.16 -5.38 51.68 -3.83 50.72 -2.93C49.77 -2.04 48.38 -1.58 46.57 -1.55L39.14 -1.44C39.22 -2.11 39.26 -3.12 39.26 -4.47L39.26 -13.37L42.1 -13.49L43.3 -13.53C44.16 -13.53 44.82 -13.44 45.3 -13.27C45.78 -13.11 46.14 -12.77 46.37 -12.26C46.6 -11.76 46.72 -11.03 46.72 -10.07L48 -10.07L48 -18.23L46.29 -18.23L46.57 -14.89L39.26 -14.93L39.26 -21.14C39.26 -22.39 39.31 -23.3 39.41 -23.89C39.52 -24.47 39.78 -24.92 40.19 -25.25C40.61 -25.57 41.28 -25.74 42.21 -25.77L45.55 -25.85C47.21 -25.9 48.5 -25.54 49.42 -24.76C50.34 -23.98 50.8 -22.53 50.8 -20.41L52.08 -20.41L51.89 -27.21L33.19 -27.21L33.19 -25.5L35.99 -25.65C35.92 -24.88 35.88 -23.94 35.88 -22.86L35.88 -6.06C35.88 -4.74 35.85 -3.82 35.8 -3.28C35.75 -2.75 35.53 -2.29 35.14 -1.9C34.75 -1.52 34.1 -1.31 33.19 -1.28Z M61.26 -1.28L61.26 0L72.61 0C74.37 0 75.94 -0.3 77.33 -0.91C78.72 -1.52 79.81 -2.4 80.6 -3.56C81.39 -4.71 81.78 -6.06 81.78 -7.62C81.78 -9.69 81.04 -11.36 79.55 -12.63C78.06 -13.9 75.92 -14.54 73.15 -14.54L73.15 -14.61C75.22 -14.98 76.81 -15.75 77.91 -16.93C79.01 -18.11 79.57 -19.4 79.57 -20.8C79.57 -22.97 78.74 -24.6 77.1 -25.67C75.45 -26.75 73.1 -27.29 70.04 -27.29C67.97 -27.29 65.04 -27.26 61.26 -27.21L61.26 -25.5L64.06 -25.65C63.98 -25.01 63.94 -23.98 63.94 -22.58L63.94 -6.26C63.94 -4.86 63.91 -3.88 63.86 -3.32C63.81 -2.77 63.59 -2.29 63.2 -1.9C62.81 -1.52 62.16 -1.31 61.26 -1.28ZM70.16 -14.96L67.32 -14.89L67.32 -22.12C67.32 -23.13 67.39 -23.89 67.54 -24.41C67.68 -24.93 67.96 -25.3 68.37 -25.54C68.79 -25.77 69.41 -25.89 70.24 -25.89C71.84 -25.89 73.21 -25.51 74.34 -24.76C75.46 -24.01 76.03 -22.66 76.03 -20.72C76.03 -19.11 75.56 -17.76 74.63 -16.66C73.7 -15.55 72.21 -14.99 70.16 -14.96ZM76.2 -3.01C75 -1.99 73.37 -1.48 71.33 -1.48L70 -1.48C68.63 -1.48 67.7 -1.5 67.2 -1.55C67.28 -2.23 67.32 -3.24 67.32 -4.59L67.32 -13.37C68.57 -13.45 69.9 -13.49 71.33 -13.49C73.32 -13.49 74.93 -13.02 76.16 -12.09C77.4 -11.16 78.01 -9.59 78.01 -7.39C78.01 -5.49 77.41 -4.04 76.2 -3.01Z M89.32 -1.28L89.32 0L109.38 0L109.61 -7.58L108.29 -7.58C108.29 -5.38 107.81 -3.83 106.85 -2.93C105.89 -2.04 104.51 -1.58 102.69 -1.55L95.27 -1.44C95.35 -2.11 95.39 -3.12 95.39 -4.47L95.39 -13.37L98.22 -13.49L99.43 -13.53C100.28 -13.53 100.95 -13.44 101.43 -13.27C101.91 -13.11 102.27 -12.77 102.5 -12.26C102.73 -11.76 102.85 -11.03 102.85 -10.07L104.13 -10.07L104.13 -18.23L102.42 -18.23L102.69 -14.89L95.39 -14.93L95.39 -21.14C95.39 -22.39 95.44 -23.3 95.54 -23.89C95.64 -24.47 95.9 -24.92 96.32 -25.25C96.73 -25.57 97.41 -25.74 98.34 -25.77L101.68 -25.85C103.34 -25.9 104.63 -25.54 105.55 -24.76C106.47 -23.98 106.93 -22.53 106.93 -20.41L108.21 -20.41L108.02 -27.21L89.32 -27.21L89.32 -25.5L92.12 -25.65C92.04 -24.88 92 -23.94 92 -22.86L92 -6.06C92 -4.74 91.98 -3.82 91.93 -3.28C91.87 -2.75 91.65 -2.29 91.27 -1.9C90.88 -1.52 90.23 -1.31 89.32 -1.28Z M117.39 -1.28L117.39 0L126.91 0L126.91 -1.75L123.33 -1.55C123.41 -2.23 123.45 -3.25 123.45 -4.63L123.45 -10.26C123.79 -10.24 124.25 -10.22 124.85 -10.22C128.04 -10.22 130.59 -10.68 132.52 -11.58C134.46 -12.49 135.82 -13.63 136.61 -15C137.4 -16.38 137.79 -17.82 137.79 -19.32C137.79 -21.94 136.8 -23.92 134.82 -25.27C132.84 -26.61 129.91 -27.29 126.05 -27.29C123.9 -27.29 121.01 -27.26 117.39 -27.21L117.39 -25.5L120.18 -25.65C120.11 -24.88 120.07 -23.94 120.07 -22.86L120.07 -6.06C120.07 -4.74 120.04 -3.82 119.99 -3.28C119.94 -2.75 119.72 -2.29 119.33 -1.9C118.94 -1.52 118.29 -1.31 117.39 -1.28ZM130.04 -12.61C128.81 -12.03 127.45 -11.74 125.98 -11.74C124.94 -11.74 124.1 -11.78 123.45 -11.86L123.45 -21.14C123.45 -22.49 123.47 -23.42 123.53 -23.92C123.58 -24.43 123.78 -24.86 124.13 -25.23C124.48 -25.59 125.09 -25.77 125.98 -25.77C128.49 -25.77 130.46 -25.23 131.88 -24.14C133.31 -23.05 134.02 -21.34 134.02 -19.01C134.02 -17.53 133.66 -16.24 132.95 -15.14C132.24 -14.04 131.27 -13.2 130.04 -12.61Z M144.83 -1.28L144.83 0L153.57 0L153.57 -1.71L150.77 -1.55C150.85 -2.23 150.89 -3.25 150.89 -4.63L150.89 -12.98L164.81 -13.14L164.81 -6.06C164.81 -4.74 164.78 -3.82 164.73 -3.28C164.68 -2.75 164.46 -2.29 164.07 -1.9C163.68 -1.52 163.03 -1.31 162.12 -1.28L162.12 0L170.87 0L170.87 -1.71L168.07 -1.55C168.15 -2.23 168.19 -3.25 168.19 -4.63L168.19 -21.14C168.19 -22.47 168.21 -23.39 168.27 -23.92C168.32 -24.46 168.54 -24.92 168.93 -25.3C169.31 -25.69 169.96 -25.9 170.87 -25.93L170.87 -27.21L162.12 -27.21L162.12 -25.5L164.92 -25.65C164.84 -24.88 164.81 -23.94 164.81 -22.86L164.81 -14.69L150.89 -14.69L150.89 -21.14C150.89 -22.47 150.92 -23.39 150.97 -23.92C151.02 -24.46 151.24 -24.92 151.63 -25.3C152.02 -25.69 152.67 -25.9 153.57 -25.93L153.57 -27.21L144.83 -27.21L144.83 -25.5L147.63 -25.65C147.55 -24.88 147.51 -23.94 147.51 -22.86L147.51 -6.06C147.51 -4.74 147.48 -3.82 147.43 -3.28C147.38 -2.75 147.16 -2.29 146.77 -1.9C146.38 -1.52 145.73 -1.31 144.83 -1.28Z M176.66 -1.28L176.66 0L183.93 0L183.93 -1.71L180.9 -1.55C181.29 -2.49 181.61 -3.38 181.87 -4.24C182.39 -5.95 182.84 -7.33 183.23 -8.4L193.34 -8.63L194.7 -4.98C194.96 -4.25 195.08 -3.64 195.08 -3.15C195.08 -1.93 194.32 -1.31 192.79 -1.28L192.79 0L201.69 0L201.69 -1.71L199.05 -1.55C199.08 -2.07 198.98 -2.74 198.78 -3.56C198.57 -4.37 198.32 -5.13 198.04 -5.83L189.37 -27.95L188.44 -27.95L180.43 -6.14L180.04 -5.05C179.71 -4.09 179.41 -3.38 179.17 -2.9C178.92 -2.42 178.6 -2.03 178.22 -1.73C177.83 -1.43 177.31 -1.28 176.66 -1.28ZM192.79 -10.07L183.81 -10.07L184.47 -11.97L186.57 -17.88L188.2 -22.27L188.28 -22.27L190.03 -17.49Z M227.21 -25.32C227.59 -25.7 228.23 -25.9 229.13 -25.93L229.13 -27.21L218.76 -27.21C212.95 -27.21 210.05 -24.47 210.05 -19.01C210.05 -17.3 210.66 -15.81 211.88 -14.56C213.09 -13.3 214.66 -12.44 216.58 -11.97C215.98 -11.79 215.47 -11.51 215.02 -11.14C214.58 -10.76 214.1 -10.21 213.59 -9.48L210.59 -4.98C209.92 -3.96 209.4 -3.23 209.02 -2.76C208.64 -2.29 208.22 -1.93 207.74 -1.67C207.26 -1.41 206.67 -1.28 205.97 -1.28L205.97 0L210.55 0C211.05 -0.26 211.59 -0.76 212.19 -1.52C212.78 -2.27 213.43 -3.2 214.13 -4.31L217.05 -8.78C217.75 -9.92 218.6 -10.78 219.61 -11.35L223.07 -11.39L223.07 -6.06C223.07 -4.74 223.04 -3.82 222.99 -3.28C222.94 -2.75 222.72 -2.29 222.33 -1.9C221.94 -1.52 221.3 -1.31 220.39 -1.28L220.39 0L229.13 0L229.13 -1.71L226.34 -1.55C226.41 -2.33 226.45 -3.27 226.45 -4.35L226.45 -21.14C226.45 -22.44 226.48 -23.37 226.55 -23.92C226.61 -24.48 226.83 -24.95 227.21 -25.32ZM223.19 -25.65C223.11 -25.01 223.07 -24 223.07 -22.62L223.07 -12.9C222.81 -12.83 221.8 -12.79 220.04 -12.79C218.9 -12.79 217.84 -13.07 216.87 -13.62C215.9 -14.18 215.13 -14.94 214.56 -15.9C213.99 -16.86 213.7 -17.92 213.7 -19.08C213.7 -21.31 214.28 -22.98 215.43 -24.08C216.59 -25.18 218.12 -25.73 220.04 -25.73L221.28 -25.73C222.45 -25.73 223.08 -25.71 223.19 -25.65Z"></path>
            </g>
          </svg>

           <svg xmlns="http://www.w3.org/2000/svg" version="1.1" x="15" y="95" width="227" height="43" viewBox="0 0 227 43"><g fill="#363636"><path d="M0 0 h 227.52767962308602 v 42.820965842167254 h -227.52767962308602 Z"></path></g>
          </svg>

       <svg xmlns="http://www.w3.org/2000/svg" version="1.1" x="20" y="55" width="213" height="100%" viewBox="0 0 213 28">
        <g fill="#ffffff"><path d="M8.18 -1.2C10.19 0.01 12.46 0.62 15 0.62C16.95 0.62 18.89 0.2 20.83 -0.64C22.78 -1.48 24.5 -2.95 26 -5.05L24.99 -5.87C23.96 -4.44 22.63 -3.34 21.03 -2.57C19.42 -1.79 17.75 -1.4 16.01 -1.4C14.1 -1.4 12.35 -1.92 10.77 -2.97C9.19 -4.02 7.93 -5.49 7 -7.37C6.06 -9.24 5.6 -11.38 5.6 -13.76C5.6 -16.25 6.04 -18.44 6.92 -20.33C7.8 -22.22 9 -23.68 10.51 -24.7C12.03 -25.72 13.71 -26.24 15.55 -26.24C17.8 -26.24 19.65 -25.56 21.09 -24.2C22.52 -22.84 23.37 -20.95 23.63 -18.54L25.03 -18.54L25.03 -27.56L22.93 -27.56L23.13 -25.46C20.74 -27.04 18.13 -27.83 15.28 -27.83C12.4 -27.83 9.94 -27.14 7.91 -25.75C5.88 -24.36 4.35 -22.56 3.32 -20.33C2.3 -18.1 1.79 -15.72 1.79 -13.18C1.79 -10.61 2.35 -8.28 3.48 -6.18C4.61 -4.08 6.17 -2.42 8.18 -1.2Z M39.14 -1.28L39.14 0L48.28 0L48.28 -1.71L45.05 -1.55C45.13 -2.23 45.17 -3.25 45.17 -4.63L45.2 -25.81L48.51 -25.81C49.83 -25.81 50.85 -25.57 51.56 -25.09C52.27 -24.61 52.78 -23.89 53.08 -22.91C53.37 -21.94 53.54 -20.64 53.56 -19.01L55.04 -19.01L54.81 -27.21L32.14 -27.21L31.91 -19.01L33.35 -19.01C33.35 -21.34 33.69 -23.04 34.38 -24.12C35.07 -25.19 36.21 -25.73 37.82 -25.73L41.82 -25.77L41.78 -6.06L41.78 -4.86C41.78 -3.67 41.62 -2.79 41.3 -2.22C40.97 -1.65 40.26 -1.33 39.14 -1.28Z M67.67 -1.44C69.74 -0.06 72.34 0.62 75.45 0.62C78.35 0.62 80.82 -0.08 82.85 -1.5C84.88 -2.91 86.41 -4.71 87.44 -6.9C88.46 -9.09 88.97 -11.32 88.97 -13.6C88.97 -15.91 88.45 -18.15 87.42 -20.33C86.38 -22.51 84.82 -24.3 82.73 -25.71C80.65 -27.12 78.11 -27.83 75.13 -27.83C72.23 -27.83 69.76 -27.12 67.73 -25.71C65.7 -24.3 64.17 -22.51 63.14 -20.33C62.12 -18.15 61.61 -15.91 61.61 -13.6C61.61 -11.19 62.1 -8.91 63.08 -6.74C64.07 -4.58 65.6 -2.81 67.67 -1.44ZM80.71 -2.7C79.27 -1.55 77.54 -0.97 75.52 -0.97C73.35 -0.97 71.49 -1.65 69.96 -3.01C68.44 -4.37 67.3 -6.08 66.54 -8.14C65.79 -10.2 65.42 -12.26 65.42 -14.3C65.42 -16.3 65.79 -18.22 66.52 -20.06C67.26 -21.9 68.36 -23.39 69.81 -24.55C71.26 -25.7 73 -26.28 75.02 -26.28C77.06 -26.28 78.85 -25.62 80.38 -24.31C81.91 -23 83.08 -21.32 83.88 -19.26C84.68 -17.2 85.08 -15.07 85.08 -12.87C85.08 -10.87 84.72 -8.97 83.98 -7.15C83.24 -5.34 82.15 -3.85 80.71 -2.7Z M96.36 -1.28L96.36 0L105.88 0L105.88 -1.75L102.3 -1.55C102.38 -2.23 102.42 -3.25 102.42 -4.63L102.42 -10.26C102.76 -10.24 103.22 -10.22 103.82 -10.22C107.01 -10.22 109.57 -10.68 111.5 -11.58C113.43 -12.49 114.79 -13.63 115.58 -15C116.37 -16.38 116.76 -17.82 116.76 -19.32C116.76 -21.94 115.77 -23.92 113.79 -25.27C111.81 -26.61 108.89 -27.29 105.02 -27.29C102.87 -27.29 99.98 -27.26 96.36 -27.21L96.36 -25.5L99.16 -25.65C99.08 -24.88 99.04 -23.94 99.04 -22.86L99.04 -6.06C99.04 -4.74 99.01 -3.82 98.96 -3.28C98.91 -2.75 98.69 -2.29 98.3 -1.9C97.91 -1.52 97.26 -1.31 96.36 -1.28ZM109.01 -12.61C107.78 -12.03 106.42 -11.74 104.95 -11.74C103.91 -11.74 103.07 -11.78 102.42 -11.86L102.42 -21.14C102.42 -22.49 102.45 -23.42 102.5 -23.92C102.55 -24.43 102.75 -24.86 103.1 -25.23C103.45 -25.59 104.07 -25.77 104.95 -25.77C107.46 -25.77 109.43 -25.23 110.86 -24.14C112.28 -23.05 112.99 -21.34 112.99 -19.01C112.99 -17.53 112.64 -16.24 111.92 -15.14C111.21 -14.04 110.24 -13.2 109.01 -12.61Z M129.51 -1.44C131.59 -0.06 134.18 0.62 137.29 0.62C140.19 0.62 142.66 -0.08 144.69 -1.5C146.72 -2.91 148.25 -4.71 149.28 -6.9C150.3 -9.09 150.81 -11.32 150.81 -13.6C150.81 -15.91 150.29 -18.15 149.26 -20.33C148.22 -22.51 146.66 -24.3 144.57 -25.71C142.49 -27.12 139.96 -27.83 136.98 -27.83C134.07 -27.83 131.6 -27.12 129.57 -25.71C127.54 -24.3 126.01 -22.51 124.98 -20.33C123.96 -18.15 123.45 -15.91 123.45 -13.6C123.45 -11.19 123.94 -8.91 124.93 -6.74C125.91 -4.58 127.44 -2.81 129.51 -1.44ZM142.55 -2.7C141.11 -1.55 139.39 -0.97 137.36 -0.97C135.19 -0.97 133.33 -1.65 131.81 -3.01C130.28 -4.37 129.14 -6.08 128.39 -8.14C127.63 -10.2 127.26 -12.26 127.26 -14.3C127.26 -16.3 127.63 -18.22 128.37 -20.06C129.1 -21.9 130.2 -23.39 131.65 -24.55C133.1 -25.7 134.84 -26.28 136.86 -26.28C138.91 -26.28 140.69 -25.62 142.22 -24.31C143.75 -23 144.92 -21.32 145.72 -19.26C146.52 -17.2 146.93 -15.07 146.93 -12.87C146.93 -10.87 146.56 -8.97 145.82 -7.15C145.08 -5.34 143.99 -3.85 142.55 -2.7Z M158.2 -1.28L158.2 0L166.94 0L166.94 -1.71L164.14 -1.55C164.22 -2.23 164.26 -3.25 164.26 -4.63L164.26 -12.98L178.18 -13.14L178.18 -6.06C178.18 -4.74 178.15 -3.82 178.1 -3.28C178.05 -2.75 177.83 -2.29 177.44 -1.9C177.05 -1.52 176.4 -1.31 175.49 -1.28L175.49 0L184.24 0L184.24 -1.71L181.44 -1.55C181.52 -2.23 181.56 -3.25 181.56 -4.63L181.56 -21.14C181.56 -22.47 181.58 -23.39 181.64 -23.92C181.69 -24.46 181.91 -24.92 182.3 -25.3C182.69 -25.69 183.33 -25.9 184.24 -25.93L184.24 -27.21L175.49 -27.21L175.49 -25.5L178.29 -25.65C178.22 -24.88 178.18 -23.94 178.18 -22.86L178.18 -14.69L164.26 -14.69L164.26 -21.14C164.26 -22.47 164.29 -23.39 164.34 -23.92C164.39 -24.46 164.61 -24.92 165 -25.3C165.39 -25.69 166.04 -25.9 166.94 -25.93L166.94 -27.21L158.2 -27.21L158.2 -25.5L161 -25.65C160.92 -24.88 160.88 -23.94 160.88 -22.86L160.88 -6.06C160.88 -4.74 160.85 -3.82 160.8 -3.28C160.75 -2.75 160.53 -2.29 160.14 -1.9C159.75 -1.52 159.1 -1.31 158.2 -1.28Z M190.03 -1.28L190.03 0L197.3 0L197.3 -1.71L194.27 -1.55C194.66 -2.49 194.98 -3.38 195.24 -4.24C195.76 -5.95 196.21 -7.33 196.6 -8.4L206.71 -8.63L208.07 -4.98C208.33 -4.25 208.46 -3.64 208.46 -3.15C208.46 -1.93 207.69 -1.31 206.16 -1.28L206.16 0L215.06 0L215.06 -1.71L212.42 -1.55C212.45 -2.07 212.36 -2.74 212.15 -3.56C211.94 -4.37 211.69 -5.13 211.41 -5.83L202.74 -27.95L201.81 -27.95L193.8 -6.14L193.41 -5.05C193.08 -4.09 192.79 -3.38 192.54 -2.9C192.29 -2.42 191.98 -2.03 191.59 -1.73C191.2 -1.43 190.68 -1.28 190.03 -1.28ZM206.16 -10.07L197.18 -10.07L197.84 -11.97L199.94 -17.88L201.58 -22.27L201.65 -22.27L203.4 -17.49Z"></path>
        </g>
      </svg>


     <svg xmlns="http://www.w3.org/2000/svg" version="1.1" x="89" y="0" width="155" height="100%" viewBox="0 28 82 16">
       <g stroke="grey" stroke-width="0.3px">
          <g fill="#ffffff"><path d="M45.858 7.418c-.092-.104-1.273-.96-1.542-1.15-2.044-1.442-4.217-2.712-6.51-3.721A30.272 30.272 0 0 0 31.578.555a27.903 27.903 0 0 0-5.872-.553A28.75 28.75 0 0 0 20.257.6c-1.687.35-3.343.843-4.953 1.459a36.154 36.154 0 0 0-4.384 2.027c-1.29.7-2.538 1.475-3.745 2.309a43.792 43.792 0 0 0-5.292 4.297c-.48.458-.951.927-1.403 1.41-.143.152-.357.408-.48.532 31.128-19.554 44.815 3.519 44.815 3.519s10.241-17.83 37.427-5.624c-.451-.429-1.029-1.015-1.433-1.37a30.692 30.692 0 0 0-4.131-3.037c-4.485-2.764-9.673-4.361-14.962-4.257-2.754.056-5.49.562-8.102 1.433a32.662 32.662 0 0 0-4.345 1.82c.001-.001-2.773 1.539-3.411 2.3z"></path>
          </g>
       </g>
     </svg>

  </svg>
