<svg class="visually-hidden" version="1.1" xmlns="http://www.w3.org/2000/svg">
  <symbol id="icon-vk" viewBox="0 0 548.358 548.358" fill="currentColor">
  <path d="M545.451,400.298c-0.664-1.431-1.283-2.618-1.858-3.569c-9.514-17.135-27.695-38.167-54.532-63.102l-0.567-0.571
    l-0.284-0.28l-0.287-0.287h-0.288c-12.18-11.611-19.893-19.418-23.123-23.415c-5.91-7.614-7.234-15.321-4.004-23.13
    c2.282-5.9,10.854-18.36,25.696-37.397c7.807-10.089,13.99-18.175,18.556-24.267c32.931-43.78,47.208-71.756,42.828-83.939
    l-1.701-2.847c-1.143-1.714-4.093-3.282-8.846-4.712c-4.764-1.427-10.853-1.663-18.278-0.712l-82.224,0.568
    c-1.332-0.472-3.234-0.428-5.712,0.144c-2.475,0.572-3.713,0.859-3.713,0.859l-1.431,0.715l-1.136,0.859
    c-0.952,0.568-1.999,1.567-3.142,2.995c-1.137,1.423-2.088,3.093-2.848,4.996c-8.952,23.031-19.13,44.444-30.553,64.238
    c-7.043,11.803-13.511,22.032-19.418,30.693c-5.899,8.658-10.848,15.037-14.842,19.126c-4,4.093-7.61,7.372-10.852,9.849
    c-3.237,2.478-5.708,3.525-7.419,3.142c-1.715-0.383-3.33-0.763-4.859-1.143c-2.663-1.714-4.805-4.045-6.42-6.995
    c-1.622-2.95-2.714-6.663-3.285-11.136c-0.568-4.476-0.904-8.326-1-11.563c-0.089-3.233-0.048-7.806,0.145-13.706
    c0.198-5.903,0.287-9.897,0.287-11.991c0-7.234,0.141-15.085,0.424-23.555c0.288-8.47,0.521-15.181,0.716-20.125
    c0.194-4.949,0.284-10.185,0.284-15.705s-0.336-9.849-1-12.991c-0.656-3.138-1.663-6.184-2.99-9.137
    c-1.335-2.95-3.289-5.232-5.853-6.852c-2.569-1.618-5.763-2.902-9.564-3.856c-10.089-2.283-22.936-3.518-38.547-3.71
    c-35.401-0.38-58.148,1.906-68.236,6.855c-3.997,2.091-7.614,4.948-10.848,8.562c-3.427,4.189-3.905,6.475-1.431,6.851
    c11.422,1.711,19.508,5.804,24.267,12.275l1.715,3.429c1.334,2.474,2.666,6.854,3.999,13.134c1.331,6.28,2.19,13.227,2.568,20.837
    c0.95,13.897,0.95,25.793,0,35.689c-0.953,9.9-1.853,17.607-2.712,23.127c-0.859,5.52-2.143,9.993-3.855,13.418
    c-1.715,3.426-2.856,5.52-3.428,6.28c-0.571,0.76-1.047,1.239-1.425,1.427c-2.474,0.948-5.047,1.431-7.71,1.431
    c-2.667,0-5.901-1.334-9.707-4c-3.805-2.666-7.754-6.328-11.847-10.992c-4.093-4.665-8.709-11.184-13.85-19.558
    c-5.137-8.374-10.467-18.271-15.987-29.691l-4.567-8.282c-2.855-5.328-6.755-13.086-11.704-23.267
    c-4.952-10.185-9.329-20.037-13.134-29.554c-1.521-3.997-3.806-7.04-6.851-9.134l-1.429-0.859c-0.95-0.76-2.475-1.567-4.567-2.427
    c-2.095-0.859-4.281-1.475-6.567-1.854l-78.229,0.568c-7.994,0-13.418,1.811-16.274,5.428l-1.143,1.711
    C0.288,140.146,0,141.668,0,143.763c0,2.094,0.571,4.664,1.714,7.707c11.42,26.84,23.839,52.725,37.257,77.659
    c13.418,24.934,25.078,45.019,34.973,60.237c9.897,15.229,19.985,29.602,30.264,43.112c10.279,13.515,17.083,22.176,20.412,25.981
    c3.333,3.812,5.951,6.662,7.854,8.565l7.139,6.851c4.568,4.569,11.276,10.041,20.127,16.416
    c8.853,6.379,18.654,12.659,29.408,18.85c10.756,6.181,23.269,11.225,37.546,15.126c14.275,3.905,28.169,5.472,41.684,4.716h32.834
    c6.659-0.575,11.704-2.669,15.133-6.283l1.136-1.431c0.764-1.136,1.479-2.901,2.139-5.276c0.668-2.379,1-5,1-7.851
    c-0.195-8.183,0.428-15.558,1.852-22.124c1.423-6.564,3.045-11.513,4.859-14.846c1.813-3.33,3.859-6.14,6.136-8.418
    c2.282-2.283,3.908-3.666,4.862-4.142c0.948-0.479,1.705-0.804,2.276-0.999c4.568-1.522,9.944-0.048,16.136,4.429
    c6.187,4.473,11.99,9.996,17.418,16.56c5.425,6.57,11.943,13.941,19.555,22.124c7.617,8.186,14.277,14.271,19.985,18.274
    l5.708,3.426c3.812,2.286,8.761,4.38,14.853,6.283c6.081,1.902,11.409,2.378,15.984,1.427l73.087-1.14
    c7.229,0,12.854-1.197,16.844-3.572c3.998-2.379,6.373-5,7.139-7.851c0.764-2.854,0.805-6.092,0.145-9.712
    C546.782,404.25,546.115,401.725,545.451,400.298z"/>
</symbol>
<symbol id="sunken-ships-monument" viewBox="0 0 11.826361 38.145451" fill="currentColor">
  <path
     d="m 6.1390378,0.8859497 0.352,-0.013 c -0.069,0.409 0.111,0.603 0.549,0.577 0.405,-0.426 1.214,-0.73499997 1.398,-1.24699997 -0.689,-0.18 -1.406,0.293 -1.947,0.66999997 m -0.021,1.956 c 0.747,-0.321 -0.094,-1.264 -0.655,-1.151 -1.013,0.373 -0.175,1.623 0.655,1.151 m 0.957,-0.193 c -0.082,0.606 0.168,0.859 0.751,0.76 0.07,-0.606 -0.179,-0.86 -0.751,-0.76 m -2.316,0.902 c 0,0.571 -0.237,1.036 -0.712,1.383 0.425,0.748 1.623,1.558 0.759,2.454 -0.142,3.7130003 -0.064,7.4430003 -0.258,11.1580003 0.082,1.139 -0.786,1.883 -1.486,2.639 0.782,1.666 0.219,3.592 0.374,5.371 0.348,-0.004 1.044,-0.004 1.392,-0.004 0.4,-1.572 0.907,-3.184 0.524,-4.818 -0.292,-0.004 -0.88,-0.012 -1.173,-0.016 0.004,-0.082 0.009,-0.242 0.013,-0.318 1.148,-0.115 1.724,0.699 1.56,1.881 0.413,-0.586 0.477,-1.314 0.627,-1.992 0.082,0.576 0.073,1.15 -0.034,1.727 0.984,-0.824 1.345,-2.285 1.577,-3.51 -0.314,0.295 -0.941,0.889 -1.255,1.186 0.038,-0.545 0.468,-0.938 0.727,-1.383 -0.856,-2.707 -0.125,-5.645 -0.511,-8.438 0.052,-2.1040003 -0.972,-4.5500003 0.421,-6.3900003 -0.211,-0.215 -0.625,-0.646 -0.831,-0.865 -0.571,-0.017 -1.142,-0.043 -1.714,-0.065 m 3.205,16.7490003 c 0.47,1.125 -0.592,1.842 -0.806,2.846 0.155,0.08 0.468,0.244 0.622,0.324 l -0.244,0.477 c 0.434,0.254 0.632,0.619 0.597,1.092 0.159,1.098 -1.152,1.32 -1.826,1.836 -0.388,0.787 -0.684,1.643 -0.315,2.502 1.625,-0.125 3.142,-1.027 4.7580002,-0.594 -0.047,-0.852 -1.053,-1.039 -1.5250002,-1.611 -0.219,-1.578 -0.459,-3.158 -0.667,-4.74 0.371,-0.724 0.563,-1.984 -0.594,-2.132 m -3.192,7.969 c 0.718,-0.385 1.027,-1.072 0.998,-1.857 0.528,-0.35 1.087,-0.658 1.693,-0.855 0.116,-0.609 -0.104,-0.977 -0.661,-1.098 -0.043,-0.377 -0.129,-1.129 -0.176,-1.504 -1.309,1.445 -1.309,3.542 -1.854,5.314 m -1.556,-1.202 c 0.345,0.004 1.026,0.008 1.372,0.008 l 0.008,-0.209 c -0.632,-0.306 -1.091,-0.24 -1.38,0.201 m -0.519,0.323 c -0.005,0.459 -0.017,1.371 -0.021,1.83 0.937,-0.32 2.333,-0.484 1.925,-1.865 -0.637,0.013 -1.269,0.027 -1.904,0.035 m 5.59,2.22 c -0.197,-0.08 -0.592,-0.254 -0.791,-0.338 -0.583,0.203 -1.173,0.381 -1.766,0.555 -0.525,0.932 -0.981,1.908 -1.234,2.955 0.25,0.211 0.757,0.637 1.01,0.85 -0.67,0.016 -1.345,0.02 -2.016,0.006 0.117,-0.326 0.344,-0.984 0.456,-1.311 -0.334,0.1 -1.005,0.307 -1.34,0.402 0.365,-1.832 2.55,-2.156 3.253,-3.746 -1.117,0.385 -3.554,-0.201 -3.635,1.406 l 0.816,-0.068 c 0.04,0.176 0.116,0.527 0.154,0.705 -0.224,-0.057 -0.661,-0.166 -0.884,-0.217 -0.396,0.734 0.133,2.592 -1.135,2.43 -0.008,0.563 -0.064,1.121 -0.104,1.684 1.449,-0.305 2.949,-0.803 4.307,0.1 -0.154,-0.924 0.18,-1.943 1.293,-1.92 -0.43,0.889 -0.585,1.941 -1.315,2.662 1.817,0.104 3.649,0.547 5.4620002,0.166 0.674,-0.256 1.293,0.055 1.878,0.369 -0.072,0.158 -0.221,0.473 -0.293,0.631 -1.186,-0.877 -2.612,-0.293 -3.9360002,-0.154 -0.357,0.295 -0.718,0.598 -1.074,0.896 -0.68,-0.664 -1.457,-0.574 -2.123,0.053 -0.232,-0.211 -0.701,-0.633 -0.933,-0.844 -0.653,0.439 -1.323,0.861 -2.066,1.135 -0.104,-0.26 -0.311,-0.785 -0.413,-1.047 -0.232,0.123 -0.697,0.365 -0.932,0.484 -0.36199995,-0.119 -0.72299995,-0.24 -1.08299995,-0.355 -0.929,0.738 -2.55800005,-0.283 -2.96500005,1.223 5.878,-0.012 11.757,-0.219 17.6370002,-0.234 -0.077,-0.58 -0.158,-1.16 -0.245,-1.74 -0.757,-0.443 -1.491,-0.93 -2.29,-1.293 -1.165,-1.928 0.185,-3.826 0.413,-5.777 -0.306,-0.252 -0.92,-0.77 -1.229,-1.027 -0.22,0.955 -0.804,1.037 -1.5330002,0.559 -0.45,0.263 -0.896,0.537 -1.344,0.8 m -8.99999995,5 c 1.134,-0.125 1.62099995,-0.684 1.45799995,-1.676 1.049,-0.662 0.718,-2.316 1.426,-3.314 -1.491,1.184 -1.84799995,3.401 -2.88399995,4.99 m 0.004,0.145 0.03,0.32 c -0.179,-0.011 -0.54400005,-0.046 -0.72600005,-0.064 m 1.00000005,1 c -0.90200005,0.107 -2.10500005,-0.084 -2.51900005,0.982 1.538,-0.027 3.15900005,0.078 4.581,-0.609 0.242,0.4 0.494,0.793 0.761,1.178 0.537,-0.473 1.114,-0.893 1.74,-1.229 0.188,0.242 0.563,0.723 0.752,0.963 0.714,-0.4 1.488,-0.627 2.313,-0.43 l -0.012,-0.486 c -0.783,0.021 -1.565,0.047 -2.347,0.074 -0.138,-1.096 -1.444,-1.037 -2.27,-1.291 -0.98,0.35 -1.928,0.854 -2.99899995,0.848 0.604,0.014 1.20699995,0.027 1.81399995,0.045 -0.268,0.043 -0.79299995,0.123 -1.05299995,0.168 l 0.31599995,0.578 c -0.74799995,0.049 -1.49399995,0.125 -2.238,0.188 0.201,-0.235 0.59900005,-0.703 0.80200005,-0.934 0.236,-0.158 0.709,-0.48 0.949,-0.645 0.117,0.242 0.344,0.713 0.459,0.955 -0.355,0.211 -0.744,0.352 -1.164,0.414 -0.059,-0.181 -0.184,-0.543 -0.244,-0.724 0.563,-0.285 1.346,-0.461 1.91699995,-0.113 -0.099,0.65 -1.71099995,0.615 -1.91699995,0.113 z"/>
</symbol>
<symbol id="heart" viewBox="0 0 50 50" fill="red">
  <path d="M24.85,10.126c2.018-4.783,6.628-8.125,11.99-8.125c7.223,0,12.425,6.179,13.079,13.543
    c0,0,0.353,1.828-0.424,5.119c-1.058,4.482-3.545,8.464-6.898,11.503L24.85,48L7.402,32.165c-3.353-3.038-5.84-7.021-6.898-11.503
    c-0.777-3.291-0.424-5.119-0.424-5.119C0.734,8.179,5.936,2,13.159,2C18.522,2,22.832,5.343,24.85,10.126z"/>
  <path style="fill:#ED7161;" d="M6,18.078c-0.553,0-1-0.447-1-1c0-5.514,4.486-10,10-10c0.553,0,1,0.447,1,1s-0.447,1-1,1
    c-4.411,0-8,3.589-8,8C7,17.631,6.553,18.078,6,18.078z"/>
</symbol>
<symbol id="icon-bus" viewBox="0 0 513 513" fill="currentColor">
  <path d="M453.5,78c-3.333-14-9-24.667-17-32s-19.667-14-35-20c-15.333-6.667-37.333-12.667-66-18
    S280.666,0,257,0c-23.667,0-49.833,2.667-78.5,8s-50.667,11.333-66,18c-15.333,6-27,12.667-35,20s-13.333,18-16,32l-20,160v223h31
    v20c0,13.333,4.167,22.667,12.5,28s16.833,5.333,25.5,0s13-14.667,13-28v-20h256v20c0,13.333,5.167,22.667,15.5,28
    s20.5,5.333,30.5,0s15-14.667,15-28v-20h31V238L453.5,78z M150.5,38.5c2.667-5,7.334-7.5,14-7.5h205v30h-205
    c-6.667,0-11.333-2.5-14-7.5S147.833,43.5,150.5,38.5z M77.5,234l17-122c1.333-6.667,7-10,17-10h293c10,0,15.667,3.333,17,10
    l17,124c0.667,2,1,3.333,1,4c0,4.667-1.667,8.5-5,11.5s-7.667,4.5-13,4.5h-327c-5.333,0-9.667-1.667-13-5s-5-7.667-5-13
    C76.5,236.667,76.833,235.333,77.5,234z M130.5,383.5c-6.667,6.333-14.5,9.5-23.5,9.5s-16.833-3.167-23.5-9.5s-10-14-10-23
    s3.333-16.667,10-23c6.667-6.333,14.5-9.5,23.5-9.5s16.833,3.167,23.5,9.5s10,14,10,23S137.167,377.167,130.5,383.5z M432.5,383.5
    c-6.667,6.333-14.5,9.5-23.5,9.5s-16.833-3.167-23.5-9.5s-10-14-10-23s3.333-16.667,10-23S400,328,409,328s16.833,3.167,23.5,9.5
    s10,14,10,23S439.167,377.167,432.5,383.5z"/>
</symbol>
<symbol id="icon-car" viewBox="0 0 459 459" fill="currentColor">
<path d="M405.45,51c-5.101-15.3-20.4-25.5-35.7-25.5H89.25c-17.85,0-30.6,10.2-35.7,25.5L0,204v204c0,15.3,10.2,25.5,25.5,25.5H51
    c15.3,0,25.5-10.2,25.5-25.5v-25.5h306V408c0,15.3,10.2,25.5,25.5,25.5h25.5c15.3,0,25.5-10.2,25.5-25.5V204L405.45,51z
    M89.25,306C68.85,306,51,288.15,51,267.75s17.85-38.25,38.25-38.25s38.25,17.85,38.25,38.25S109.65,306,89.25,306z M369.75,306
    c-20.4,0-38.25-17.85-38.25-38.25s17.85-38.25,38.25-38.25S408,247.35,408,267.75S390.15,306,369.75,306z M51,178.5L89.25,63.75
    h280.5L408,178.5H51z"/>
</symbol>
<symbol id="icon-human" viewBox="0 0 470.642 470.642" fill="currentColor">
  <path d="M223.821,76.022c10.333-0.333,19-4.333,26-12s10.333-16.667,10-27
    c-0.333-10.335-4.167-19.168-11.5-26.5c-7.333-7.333-16.167-10.833-26.5-10.5s-19,4.333-26,12s-10.5,16.667-10.5,27
    s3.833,19.167,11.5,26.5S213.488,76.355,223.821,76.022z"/>
  <path d="M350.321,202.522l-55-30l-45-72c-8.667-10.667-19.333-16-32-16c-8.667,0-17,3.667-25,11l-68,69
    c-2,2.667-3.333,5.667-4,9l-9,77v2c0,4.666,1.667,8.666,5,12c3.333,3.332,7.333,5,12,5s8.5-1.668,11.5-5c3-3.334,4.833-7,5.5-11
    l7-66l24-24l-22,184l-39,87.001c-1.333,4-2,7.658-2,11.002c0,7.322,2.5,13.5,7.5,18.5s11.167,7.164,18.5,6.5
    c10,0,17.333-4.678,22-14l42-94.002c0-0.67,0.333-1.835,1-3.5c0.668-1.67,1.335-3.17,2-4.5c0.667-1.335,1-2.67,1-4l5-45.001
    l43,148.003c4.667,12,13,17.666,25,17c6.667,0,12.5-2.5,17.5-7.5s7.5-11.178,7.5-18.5c0-0.678-0.167-1.5-0.5-2.5
    s-0.5-1.836-0.5-2.502l-60-205.001l7-67l17,27c1.333,2,3,3.667,5,5l59,33c4,1.333,6.667,2,8,2c4.667,0,8.667-1.833,12-5.5
    c3.333-3.668,5-7.834,5-12.5C358.321,210.522,355.654,205.855,350.321,202.522z"/>
</symbol>
<symbol id="icon-train" viewBox="0 0 484.5 484.5" fill="currentColor">
    <path d="M242.25,0c-112.2,0-204,12.75-204,102v242.25c0,48.45,40.8,89.25,89.25,89.25l-38.25,38.25v12.75h306v-12.75L357,433.5
      c48.45,0,89.25-40.8,89.25-89.25V102C446.25,12.75,354.45,0,242.25,0z M127.5,382.5c-20.4,0-38.25-17.85-38.25-38.25
      S107.1,306,127.5,306s38.25,17.85,38.25,38.25S147.9,382.5,127.5,382.5z M216.75,229.5H89.25V102h127.5V229.5z M357,382.5
      c-20.4,0-38.25-17.85-38.25-38.25S336.6,306,357,306s38.25,17.85,38.25,38.25S377.4,382.5,357,382.5z M395.25,229.5h-127.5V102
      h127.5V229.5z"/>
</symbol>
<symbol id="icon-boat" viewBox="0 0 22 22" fill="currentColor">
    <path d="M20 21c-1.39 0-2.78-.47-4-1.32-2.44 1.71-5.56 1.71-8 0C6.78 20.53 5.39 21 4 21H2v2h2c1.38 0 2.74-.35 4-.99 2.52 1.29 5.48 1.29 8 0 1.26.65 2.62.99 4 .99h2v-2h-2zM3.95 19H4c1.6 0 3.02-.88 4-2 .98 1.12 2.4 2 4 2s3.02-.88 4-2c.98 1.12 2.4 2 4 2h.05l1.89-6.68c.08-.26.06-.54-.06-.78s-.34-.42-.6-.5L20 10.62V6c0-1.1-.9-2-2-2h-3V1H9v3H6c-1.1 0-2 .9-2 2v4.62l-1.29.42c-.26.08-.48.26-.6.5s-.15.52-.06.78L3.95 19zM6 6h12v3.97L12 8 6 9.97V6z"/>
</symbol>
</svg>
