<svg
  xmlns="http://www.w3.org/2000/svg"
  width="34.180233"
  height="73.925293"
  id="sunken-ships-monument"
  viewBox="0 0 11.826361 38.145451"
  version="1.1"
  fill="#444444">
  <path
     d="m 6.1390378,0.8859497 0.352,-0.013 c -0.069,0.409 0.111,0.603 0.549,0.577 0.405,-0.426 1.214,-0.73499997 1.398,-1.24699997 -0.689,-0.18 -1.406,0.293 -1.947,0.66999997 m -0.021,1.956 c 0.747,-0.321 -0.094,-1.264 -0.655,-1.151 -1.013,0.373 -0.175,1.623 0.655,1.151 m 0.957,-0.193 c -0.082,0.606 0.168,0.859 0.751,0.76 0.07,-0.606 -0.179,-0.86 -0.751,-0.76 m -2.316,0.902 c 0,0.571 -0.237,1.036 -0.712,1.383 0.425,0.748 1.623,1.558 0.759,2.454 -0.142,3.7130003 -0.064,7.4430003 -0.258,11.1580003 0.082,1.139 -0.786,1.883 -1.486,2.639 0.782,1.666 0.219,3.592 0.374,5.371 0.348,-0.004 1.044,-0.004 1.392,-0.004 0.4,-1.572 0.907,-3.184 0.524,-4.818 -0.292,-0.004 -0.88,-0.012 -1.173,-0.016 0.004,-0.082 0.009,-0.242 0.013,-0.318 1.148,-0.115 1.724,0.699 1.56,1.881 0.413,-0.586 0.477,-1.314 0.627,-1.992 0.082,0.576 0.073,1.15 -0.034,1.727 0.984,-0.824 1.345,-2.285 1.577,-3.51 -0.314,0.295 -0.941,0.889 -1.255,1.186 0.038,-0.545 0.468,-0.938 0.727,-1.383 -0.856,-2.707 -0.125,-5.645 -0.511,-8.438 0.052,-2.1040003 -0.972,-4.5500003 0.421,-6.3900003 -0.211,-0.215 -0.625,-0.646 -0.831,-0.865 -0.571,-0.017 -1.142,-0.043 -1.714,-0.065 m 3.205,16.7490003 c 0.47,1.125 -0.592,1.842 -0.806,2.846 0.155,0.08 0.468,0.244 0.622,0.324 l -0.244,0.477 c 0.434,0.254 0.632,0.619 0.597,1.092 0.159,1.098 -1.152,1.32 -1.826,1.836 -0.388,0.787 -0.684,1.643 -0.315,2.502 1.625,-0.125 3.142,-1.027 4.7580002,-0.594 -0.047,-0.852 -1.053,-1.039 -1.5250002,-1.611 -0.219,-1.578 -0.459,-3.158 -0.667,-4.74 0.371,-0.724 0.563,-1.984 -0.594,-2.132 m -3.192,7.969 c 0.718,-0.385 1.027,-1.072 0.998,-1.857 0.528,-0.35 1.087,-0.658 1.693,-0.855 0.116,-0.609 -0.104,-0.977 -0.661,-1.098 -0.043,-0.377 -0.129,-1.129 -0.176,-1.504 -1.309,1.445 -1.309,3.542 -1.854,5.314 m -1.556,-1.202 c 0.345,0.004 1.026,0.008 1.372,0.008 l 0.008,-0.209 c -0.632,-0.306 -1.091,-0.24 -1.38,0.201 m -0.519,0.323 c -0.005,0.459 -0.017,1.371 -0.021,1.83 0.937,-0.32 2.333,-0.484 1.925,-1.865 -0.637,0.013 -1.269,0.027 -1.904,0.035 m 5.59,2.22 c -0.197,-0.08 -0.592,-0.254 -0.791,-0.338 -0.583,0.203 -1.173,0.381 -1.766,0.555 -0.525,0.932 -0.981,1.908 -1.234,2.955 0.25,0.211 0.757,0.637 1.01,0.85 -0.67,0.016 -1.345,0.02 -2.016,0.006 0.117,-0.326 0.344,-0.984 0.456,-1.311 -0.334,0.1 -1.005,0.307 -1.34,0.402 0.365,-1.832 2.55,-2.156 3.253,-3.746 -1.117,0.385 -3.554,-0.201 -3.635,1.406 l 0.816,-0.068 c 0.04,0.176 0.116,0.527 0.154,0.705 -0.224,-0.057 -0.661,-0.166 -0.884,-0.217 -0.396,0.734 0.133,2.592 -1.135,2.43 -0.008,0.563 -0.064,1.121 -0.104,1.684 1.449,-0.305 2.949,-0.803 4.307,0.1 -0.154,-0.924 0.18,-1.943 1.293,-1.92 -0.43,0.889 -0.585,1.941 -1.315,2.662 1.817,0.104 3.649,0.547 5.4620002,0.166 0.674,-0.256 1.293,0.055 1.878,0.369 -0.072,0.158 -0.221,0.473 -0.293,0.631 -1.186,-0.877 -2.612,-0.293 -3.9360002,-0.154 -0.357,0.295 -0.718,0.598 -1.074,0.896 -0.68,-0.664 -1.457,-0.574 -2.123,0.053 -0.232,-0.211 -0.701,-0.633 -0.933,-0.844 -0.653,0.439 -1.323,0.861 -2.066,1.135 -0.104,-0.26 -0.311,-0.785 -0.413,-1.047 -0.232,0.123 -0.697,0.365 -0.932,0.484 -0.36199995,-0.119 -0.72299995,-0.24 -1.08299995,-0.355 -0.929,0.738 -2.55800005,-0.283 -2.96500005,1.223 5.878,-0.012 11.757,-0.219 17.6370002,-0.234 -0.077,-0.58 -0.158,-1.16 -0.245,-1.74 -0.757,-0.443 -1.491,-0.93 -2.29,-1.293 -1.165,-1.928 0.185,-3.826 0.413,-5.777 -0.306,-0.252 -0.92,-0.77 -1.229,-1.027 -0.22,0.955 -0.804,1.037 -1.5330002,0.559 -0.45,0.263 -0.896,0.537 -1.344,0.8 m -8.99999995,5 c 1.134,-0.125 1.62099995,-0.684 1.45799995,-1.676 1.049,-0.662 0.718,-2.316 1.426,-3.314 -1.491,1.184 -1.84799995,3.401 -2.88399995,4.99 m 0.004,0.145 0.03,0.32 c -0.179,-0.011 -0.54400005,-0.046 -0.72600005,-0.064 m 1.00000005,1 c -0.90200005,0.107 -2.10500005,-0.084 -2.51900005,0.982 1.538,-0.027 3.15900005,0.078 4.581,-0.609 0.242,0.4 0.494,0.793 0.761,1.178 0.537,-0.473 1.114,-0.893 1.74,-1.229 0.188,0.242 0.563,0.723 0.752,0.963 0.714,-0.4 1.488,-0.627 2.313,-0.43 l -0.012,-0.486 c -0.783,0.021 -1.565,0.047 -2.347,0.074 -0.138,-1.096 -1.444,-1.037 -2.27,-1.291 -0.98,0.35 -1.928,0.854 -2.99899995,0.848 0.604,0.014 1.20699995,0.027 1.81399995,0.045 -0.268,0.043 -0.79299995,0.123 -1.05299995,0.168 l 0.31599995,0.578 c -0.74799995,0.049 -1.49399995,0.125 -2.238,0.188 0.201,-0.235 0.59900005,-0.703 0.80200005,-0.934 0.236,-0.158 0.709,-0.48 0.949,-0.645 0.117,0.242 0.344,0.713 0.459,0.955 -0.355,0.211 -0.744,0.352 -1.164,0.414 -0.059,-0.181 -0.184,-0.543 -0.244,-0.724 0.563,-0.285 1.346,-0.461 1.91699995,-0.113 -0.099,0.65 -1.71099995,0.615 -1.91699995,0.113 z"/>
</svg>
